 <svg version="1.0" xmlns="http://www.w3.org/2000/svg"  width="300.000000pt" height="150.000000pt" viewBox="0 0 300.000000 150.000000"  preserveAspectRatio="xMidYMid meet">  <g transform="translate(0.000000,150.000000) scale(0.100000,-0.100000)" fill="#bbbaba" stroke="none"> <path d="M1341 1350 c-9 -5 -9 -14 -1 -36 6 -16 10 -69 9 -119 -3 -88 -3 -90 20 -93 23 -4 24 -2 17 50 -4 29 -9 68 -13 87 -4 26 -3 33 8 29 12 -4 64 -89 89 -145 6 -15 18 -23 35 -23 l25 0 0 131 c0 119 -2 130 -17 127 -16 -3 -18 -16 -18 -90 0 -47 -3 -89 -6 -93 -4 -3 -29 34 -55 84 -46 86 -68 107 -93 91z"/> <path d="M1185 1298 c4 -18 11 -51 17 -73 5 -22 12 -64 15 -92 5 -48 8 -53 29 -53 23 0 24 3 18 43 -4 23 -11 50 -15 59 -5 9 -9 28 -9 43 0 48 -24 105 -44 105 -16 0 -17 -5 -11 -32z"/> <path d="M1702 1304 c-87 -69 -73 -188 26 -230 31 -13 43 -13 75 -3 35 12 71 47 79 78 3 13 -87 43 -97 33 -12 -12 -3 -32 14 -32 27 0 34 -15 15 -34 -19 -20 -42 -20 -81 -1 -57 29 -65 103 -16 157 18 20 87 25 98 8 9 -15 42 -12 49 5 7 20 -43 45 -91 45 -26 0 -49 -9 -71 -26z"/> <path d="M951 1264 c-66 -18 -67 -18 -54 -47 23 -49 43 -104 54 -149 10 -41 15 -48 36 -48 20 0 24 4 18 18 -13 31 -10 44 10 56 69 39 85 57 85 95 0 75 -53 101 -149 75z m103 -45 c18 -26 8 -60 -22 -74 -12 -5 -22 -13 -22 -17 0 -5 -8 -8 -18 -8 -13 0 -23 13 -32 43 -18 58 -18 59 10 68 45 13 69 9 84 -12z"/> <path d="M670 1123 c-30 -15 -57 -28 -59 -29 -2 -2 12 -28 30 -59 19 -32 46 -78 61 -103 29 -52 40 -59 57 -39 9 11 8 17 -4 27 -16 14 -20 40 -6 40 5 0 25 16 45 36 48 48 49 91 5 128 -38 33 -60 32 -129 -1z m101 -23 c10 -6 19 -20 19 -32 0 -23 -46 -78 -66 -78 -10 0 -64 71 -64 84 0 9 54 35 73 36 10 0 27 -5 38 -10z"/> <path d="M2158 1122 c-33 -20 -68 -80 -68 -117 0 -41 37 -93 81 -115 46 -24 78 -25 86 -4 7 19 -12 34 -44 34 -12 0 -35 12 -52 26 -41 34 -42 77 -3 121 38 45 83 48 126 8 14 -13 33 -22 41 -19 30 12 14 40 -42 72 -31 16 -92 14 -125 -6z"/> <path d="M460 942 c-48 -7 -100 -74 -100 -129 0 -34 31 -87 62 -107 43 -27 114 -24 148 7 62 56 68 122 15 184 -35 41 -67 53 -125 45z m97 -70 c57 -68 0 -163 -88 -145 -21 4 -39 18 -57 45 l-26 40 19 36 c37 67 108 79 152 24z"/> <path d="M2499 908 c-32 -20 -54 -33 -132 -77 -19 -10 -42 -21 -51 -22 -15 -4 -15 -6 -2 -24 14 -19 16 -19 42 -3 27 16 29 15 61 -15 37 -35 40 -48 18 -71 -13 -13 -13 -19 -3 -36 17 -26 22 -25 38 8 21 46 36 75 69 134 36 66 37 72 13 103 l-19 24 -34 -21z m31 -45 c0 -10 -9 -29 -20 -43 -11 -14 -20 -31 -20 -37 0 -30 -70 2 -70 32 0 6 18 19 40 29 22 10 40 22 40 27 0 5 7 9 15 9 8 0 15 -8 15 -17z"/> <path d="M1395 708 c-83 -43 -108 -84 -107 -175 1 -68 27 -122 72 -145 14 -7 31 -19 38 -25 7 -7 19 -13 27 -13 22 0 75 -34 75 -48 0 -19 -28 -26 -56 -14 -14 7 -24 20 -24 32 0 28 -9 26 -84 -25 -37 -25 -71 -45 -76 -45 -41 0 34 -102 101 -138 55 -30 153 -30 206 -2 130 71 163 239 66 337 -19 18 -40 33 -48 33 -8 0 -15 7 -15 15 0 12 -4 13 -19 6 -13 -7 -23 -6 -36 3 -16 12 -13 14 27 18 49 6 128 37 128 50 0 5 -5 14 -10 21 -6 7 -24 30 -40 52 -56 79 -146 104 -225 63z m161 -70 c24 -18 44 -38 44 -44 0 -15 -92 -62 -97 -49 -10 29 -22 37 -47 31 -20 -5 -26 -13 -26 -34 0 -24 10 -34 68 -67 103 -60 142 -107 142 -170 0 -43 -37 -104 -81 -136 -50 -35 -140 -33 -196 5 -46 31 -55 55 -23 63 11 3 20 9 20 14 0 5 7 9 15 9 8 0 15 5 15 10 0 18 18 11 25 -10 5 -16 15 -20 51 -20 39 0 47 4 64 32 26 43 9 74 -65 114 -98 52 -125 83 -125 144 0 58 15 91 55 118 48 33 109 29 161 -10z"/> <path d="M2640 654 c-41 -25 -90 -52 -107 -60 -18 -8 -33 -21 -33 -29 0 -28 30 -28 66 0 28 21 38 24 49 15 24 -20 18 -74 -10 -104 -30 -32 -32 -56 -6 -56 20 0 46 33 53 65 3 16 11 20 43 18 43 -3 65 9 84 46 9 16 10 30 3 45 -31 69 -48 100 -57 102 -6 2 -44 -17 -85 -42z m96 -41 c19 -46 9 -68 -31 -68 -19 0 -35 9 -49 28 l-21 29 30 24 c41 32 52 30 71 -13z"/> <path d="M210 670 c0 -10 10 -25 23 -31 12 -7 39 -23 60 -36 l37 -23 -22 -40 c-13 -22 -28 -40 -34 -40 -15 0 -51 19 -91 47 -28 21 -32 21 -44 7 -15 -19 0 -33 78 -74 27 -13 66 -36 89 -51 38 -26 41 -26 51 -9 14 21 0 40 -29 40 -23 0 -23 19 2 50 11 14 20 31 20 38 0 16 6 15 41 -5 21 -13 32 -14 40 -6 15 15 5 30 -34 49 -45 23 -141 87 -145 96 -8 17 -42 8 -42 -12z"/> <path d="M863 463 c-7 -2 -13 -13 -13 -24 0 -20 -34 -27 -44 -10 -9 14 -65 -11 -72 -31 -3 -9 2 -29 12 -43 16 -24 16 -26 -10 -46 -14 -11 -26 -26 -26 -33 0 -19 34 -46 57 -46 14 0 23 -8 27 -25 12 -48 80 -53 97 -8 8 21 13 24 40 18 22 -5 36 -2 50 11 24 21 24 32 2 57 -17 18 -17 19 0 32 20 14 23 55 5 73 -7 7 -22 12 -35 12 -16 0 -23 6 -23 18 0 33 -37 58 -67 45z m45 -66 c2 -24 8 -37 18 -37 8 0 14 5 14 10 0 16 27 11 34 -6 8 -21 -8 -40 -41 -49 l-27 -6 30 -19 c53 -35 25 -57 -43 -35 -21 7 -23 4 -23 -24 0 -36 -22 -50 -46 -31 -10 9 -13 22 -9 42 7 30 3 33 -25 18 -10 -5 -26 -7 -34 -4 -27 10 -18 34 19 50 39 16 45 30 16 39 -21 6 -34 31 -25 46 3 5 18 9 34 9 20 0 31 -6 35 -20 10 -30 39 -26 31 4 -8 32 3 58 23 54 11 -2 17 -16 19 -41z"/> <path d="M2103 463 c-7 -2 -13 -13 -13 -24 0 -13 -7 -19 -24 -19 -13 0 -26 5 -28 10 -5 15 -57 -11 -64 -32 -3 -9 3 -29 13 -44 13 -20 14 -29 5 -32 -56 -18 -52 -85 5 -88 20 0 29 -7 33 -25 12 -49 91 -58 98 -10 3 18 8 20 40 15 29 -5 41 -2 55 14 17 19 14 52 -4 52 -14 0 -10 26 6 40 33 27 12 80 -32 80 -16 0 -23 6 -23 18 0 33 -37 58 -67 45z m35 -35 c7 -7 12 -25 12 -40 0 -32 2 -33 30 -16 21 14 27 11 32 -16 3 -18 -9 -29 -46 -40 -15 -5 -16 -9 -6 -21 7 -8 19 -15 26 -15 8 0 14 -10 14 -21 0 -18 -4 -21 -27 -16 -16 3 -36 9 -45 12 -15 6 -18 2 -18 -24 0 -36 -22 -50 -45 -31 -9 7 -14 24 -13 39 3 26 -2 28 -32 17 -22 -8 -44 9 -37 28 4 9 20 19 37 22 27 6 44 34 21 34 -15 0 -41 30 -41 46 0 23 57 18 70 -6 6 -11 18 -20 26 -20 11 0 13 6 9 20 -7 22 2 60 14 60 4 0 12 -5 19 -12z"/> <path d="M2848 423 c-22 -5 -23 -21 -2 -44 20 -22 13 -35 -23 -42 -86 -17 -168 -46 -171 -61 -5 -24 22 -30 60 -13 18 8 53 20 78 28 25 7 50 17 57 22 18 13 33 0 33 -29 0 -17 6 -24 19 -24 27 0 31 20 11 60 -10 19 -21 50 -25 67 -7 37 -12 41 -37 36z"/> <path d="M56 358 c-22 -32 -20 -61 7 -86 32 -30 53 -28 103 13 23 19 52 35 63 35 28 0 39 -44 17 -69 -17 -19 -21 -47 -7 -55 4 -3 19 6 32 20 32 34 31 100 -1 126 -34 28 -71 23 -114 -17 -21 -19 -45 -35 -53 -35 -21 0 -27 29 -9 49 9 10 16 23 16 29 0 20 -38 13 -54 -10z"/> </g> </svg> 